#include "hUGEDriver.h"
#include <stddef.h>

static const unsigned char order_cnt = 6;

static const unsigned char P0[] = {
    DN(C_5,2,0xC0F),
    DN(___,0,0xE00),
    DN(C_5,2,0xC0F),
    DN(___,0,0x000),
    DN(C_5,2,0xC0F),
    DN(___,0,0x000),
    DN(C_5,2,0xC0F),
    DN(___,0,0xE00),
    DN(Cs5,2,0xC0F),
    DN(___,0,0xE00),
    DN(C_5,2,0xC0F),
    DN(___,0,0xE00),
    DN(___,0,0x000),
    DN(___,0,0x000),
    DN(C_5,2,0xC0F),
    DN(___,0,0xE00),
    DN(___,0,0x000),
    DN(___,0,0x000),
    DN(C_5,2,0xC0F),
    DN(___,0,0xE00),
    DN(___,0,0x000),
    DN(___,0,0x000),
    DN(C_5,2,0xC0F),
    DN(___,0,0xE00),
    DN(Fs6,2,0xC0F),
    DN(___,0,0xE00),
    DN(___,0,0x000),
    DN(___,0,0x000),
    DN(F_6,2,0xC0F),
    DN(___,0,0xE00),
    DN(___,0,0x000),
    DN(___,0,0x000),
    DN(C_5,2,0xC0F),
    DN(___,0,0xE00),
    DN(C_5,2,0xC0F),
    DN(___,0,0x000),
    DN(C_5,2,0xC0F),
    DN(___,0,0x000),
    DN(C_5,2,0xC0F),
    DN(___,0,0xE00),
    DN(Cs5,2,0xC0F),
    DN(___,0,0xE00),
    DN(C_5,2,0xC0F),
    DN(___,0,0xE00),
    DN(___,0,0x000),
    DN(___,0,0x000),
    DN(C_5,2,0xC0F),
    DN(___,0,0xE00),
    DN(___,0,0x000),
    DN(___,0,0x000),
    DN(C_5,2,0xC0F),
    DN(___,0,0xE00),
    DN(___,0,0x000),
    DN(___,0,0x000),
    DN(C_5,2,0xC0F),
    DN(___,0,0xE00),
    DN(Fs6,2,0xC0F),
    DN(___,0,0xE00),
    DN(___,0,0x000),
    DN(___,0,0x000),
    DN(F_6,2,0xC0F),
    DN(___,0,0xE00),
    DN(___,0,0x000),
    DN(___,0,0x000),
};
static const unsigned char P1[] = {
    DN(___,0,0x000),
    DN(___,0,0x000),
    DN(___,0,0x000),
    DN(___,0,0x000),
    DN(___,0,0x000),
    DN(___,0,0x000),
    DN(___,0,0x000),
    DN(___,0,0x000),
    DN(___,0,0x000),
    DN(___,0,0x000),
    DN(___,0,0x000),
    DN(___,0,0x000),
    DN(___,0,0x000),
    DN(___,0,0x000),
    DN(___,0,0x000),
    DN(___,0,0x000),
    DN(___,0,0x000),
    DN(___,0,0x000),
    DN(___,0,0x000),
    DN(___,0,0x000),
    DN(___,0,0x000),
    DN(___,0,0x000),
    DN(___,0,0x000),
    DN(___,0,0x000),
    DN(___,0,0x000),
    DN(___,0,0x000),
    DN(___,0,0x000),
    DN(___,0,0x000),
    DN(___,0,0x000),
    DN(___,0,0x000),
    DN(___,0,0x000),
    DN(___,0,0x000),
    DN(___,0,0x000),
    DN(___,0,0x000),
    DN(___,0,0x000),
    DN(___,0,0x000),
    DN(___,0,0x000),
    DN(___,0,0x000),
    DN(___,0,0x000),
    DN(___,0,0x000),
    DN(___,0,0x000),
    DN(___,0,0x000),
    DN(___,0,0x000),
    DN(___,0,0x000),
    DN(___,0,0x000),
    DN(___,0,0x000),
    DN(___,0,0x000),
    DN(___,0,0x000),
    DN(___,0,0x000),
    DN(___,0,0x000),
    DN(___,0,0x000),
    DN(___,0,0x000),
    DN(___,0,0x000),
    DN(___,0,0x000),
    DN(___,0,0x000),
    DN(___,0,0x000),
    DN(___,0,0x000),
    DN(___,0,0x000),
    DN(___,0,0x000),
    DN(___,0,0x000),
    DN(___,0,0x000),
    DN(___,0,0x000),
    DN(___,0,0x000),
    DN(___,0,0x000),
};
static const unsigned char P2[] = {
    DN(C_4,12,0xC0F),
    DN(___,0,0x000),
    DN(C_4,12,0xC08),
    DN(___,0,0xE00),
    DN(C_4,12,0xC0F),
    DN(___,0,0x000),
    DN(C_4,12,0xC08),
    DN(___,0,0xE00),
    DN(D_4,12,0xC0F),
    DN(___,0,0x000),
    DN(C_4,12,0xC0F),
    DN(C_4,12,0xC08),
    DN(___,0,0xE00),
    DN(___,0,0x000),
    DN(C_4,12,0xC0F),
    DN(___,0,0x000),
    DN(C_4,12,0xC08),
    DN(___,0,0xE00),
    DN(C_4,12,0xC0F),
    DN(___,0,0x000),
    DN(C_4,12,0xC08),
    DN(___,0,0xE00),
    DN(C_4,12,0xC0F),
    DN(___,0,0x000),
    DN(F_4,12,0xC0F),
    DN(___,0,0x000),
    DN(F_4,12,0xC08),
    DN(___,0,0xE00),
    DN(Ds4,12,0xC0F),
    DN(___,0,0x000),
    DN(___,0,0x000),
    DN(___,0,0x000),
    DN(C_4,12,0xC0F),
    DN(___,0,0x000),
    DN(C_4,12,0xC08),
    DN(___,0,0xE00),
    DN(C_4,12,0xC0F),
    DN(___,0,0x000),
    DN(C_4,12,0xC08),
    DN(___,0,0xE00),
    DN(D_4,12,0xC0F),
    DN(___,0,0x000),
    DN(C_4,12,0xC0F),
    DN(C_4,12,0xC08),
    DN(___,0,0xE00),
    DN(___,0,0x000),
    DN(C_4,12,0xC0F),
    DN(___,0,0x000),
    DN(C_4,12,0xC08),
    DN(___,0,0xE00),
    DN(C_4,12,0xC0F),
    DN(___,0,0x000),
    DN(C_4,12,0xC08),
    DN(___,0,0xE00),
    DN(C_4,12,0xC0F),
    DN(___,0,0x000),
    DN(F_4,12,0xC0F),
    DN(___,0,0x000),
    DN(F_4,12,0xC08),
    DN(___,0,0xE00),
    DN(Ds4,12,0xC0F),
    DN(___,0,0x000),
    DN(___,0,0x000),
    DN(___,0,0x000),
};
static const unsigned char P3[] = {
    DN(B_5,1,0xC0F),
    DN(B_5,1,0xC08),
    DN(___,0,0xE00),
    DN(___,0,0x000),
    DN(B_5,1,0xC0F),
    DN(B_5,1,0xC08),
    DN(___,0,0xE00),
    DN(___,0,0x000),
    DN(B_5,1,0xC0F),
    DN(B_5,1,0xC08),
    DN(___,0,0xE00),
    DN(___,0,0x000),
    DN(B_5,1,0xC0F),
    DN(B_5,1,0xC08),
    DN(___,0,0xE00),
    DN(___,0,0x000),
    DN(B_5,1,0xC0F),
    DN(B_5,1,0xC08),
    DN(___,0,0xE00),
    DN(___,0,0x000),
    DN(B_5,1,0xC0F),
    DN(B_5,1,0xC08),
    DN(___,0,0xE00),
    DN(___,0,0x000),
    DN(B_5,1,0xC0F),
    DN(B_5,1,0xC08),
    DN(___,0,0xE00),
    DN(___,0,0x000),
    DN(B_5,1,0xC0F),
    DN(B_5,1,0xC08),
    DN(___,0,0xE00),
    DN(___,0,0x000),
    DN(B_5,1,0xC0F),
    DN(B_5,1,0xC08),
    DN(___,0,0xE00),
    DN(___,0,0x000),
    DN(B_5,1,0xC0F),
    DN(B_5,1,0xC08),
    DN(___,0,0xE00),
    DN(___,0,0x000),
    DN(B_5,1,0xC0F),
    DN(B_5,1,0xC08),
    DN(___,0,0xE00),
    DN(___,0,0x000),
    DN(B_5,1,0xC0F),
    DN(B_5,1,0xC08),
    DN(___,0,0xE00),
    DN(___,0,0x000),
    DN(B_5,1,0xC0F),
    DN(B_5,1,0xC08),
    DN(___,0,0xE00),
    DN(___,0,0x000),
    DN(B_5,1,0xC0F),
    DN(B_5,1,0xC08),
    DN(___,0,0xE00),
    DN(___,0,0x000),
    DN(B_5,1,0xC0F),
    DN(B_5,1,0xC08),
    DN(___,0,0xE00),
    DN(___,0,0x000),
    DN(B_5,1,0xC0F),
    DN(B_5,1,0xC08),
    DN(___,0,0xE00),
    DN(___,0,0x000),
};

static const unsigned char* const order1[] = {P0,P0,P0};
static const unsigned char* const order2[] = {P1,P1,P1};
static const unsigned char* const order3[] = {P2,P2,P2};
static const unsigned char* const order4[] = {P3,P3,P3};

static const hUGEDutyInstr_t duty_instruments[] = {
    {8,64,240,0,128},
    {8,128,240,0,128},
    {8,192,240,0,128},
    {8,0,240,0,128},
    {8,128,240,0,128},
    {8,128,240,0,128},
    {8,128,240,0,128},
    {8,128,240,0,128},
    {8,128,240,0,128},
    {8,128,240,0,128},
    {8,128,240,0,128},
    {8,128,240,0,128},
    {8,128,240,0,128},
    {8,128,240,0,128},
    {8,128,240,0,128},
};
static const hUGEWaveInstr_t wave_instruments[] = {
    {0,32,0,0,128},
    {0,32,1,0,128},
    {0,32,2,0,128},
    {0,32,3,0,128},
    {0,32,4,0,128},
    {0,32,5,0,128},
    {0,32,6,0,128},
    {0,32,0,0,128},
    {0,32,1,0,128},
    {0,32,2,0,128},
    {0,32,3,0,128},
    {0,32,4,0,128},
    {0,32,5,0,128},
    {0,32,6,0,128},
    {0,32,7,0,128},
};
static const hUGENoiseInstr_t noise_instruments[] = {
    {240,0,0,0,0},
    {240,0,0,0,0},
    {240,0,0,0,0},
    {240,0,0,0,0},
    {240,0,0,0,0},
    {240,0,0,0,0},
    {240,0,0,0,0},
    {240,0,0,0,0},
    {240,0,0,0,0},
    {240,0,0,0,0},
    {240,0,0,0,0},
    {240,0,0,0,0},
    {240,0,0,0,0},
    {240,0,0,0,0},
    {240,0,0,0,0},
};

static const unsigned char waves[] = {
    165,215,201,225,188,154,118,49,12,186,222,96,27,202,3,147,
    240,225,210,195,180,165,150,135,120,105,90,75,60,45,30,15,
    253,236,219,202,185,168,151,134,121,104,87,70,53,36,19,2,
    222,254,220,186,154,169,135,119,136,135,101,86,84,50,16,18,
    171,205,239,237,203,160,18,62,220,186,188,222,254,220,50,16,
    255,238,221,204,187,170,153,136,119,102,85,68,51,34,17,0,
    255,255,255,255,255,255,255,255,0,0,0,0,0,0,0,0,
    121,188,222,239,255,238,220,185,117,67,33,16,0,17,35,69,
    209,68,131,164,205,60,170,222,116,108,233,195,109,172,200,145,
    145,148,182,88,212,108,74,218,180,92,82,219,57,186,217,226,
    71,125,90,169,84,114,199,21,10,21,144,61,1,101,153,121,
    6,5,93,189,57,77,122,82,43,81,185,87,80,224,211,87,
    48,213,50,196,147,19,39,12,8,237,21,156,8,160,5,106,
    65,35,155,102,96,14,65,0,211,129,58,117,113,238,201,71,
    110,65,1,12,70,96,120,107,184,218,13,45,213,21,195,88,
    80,135,32,86,142,124,46,131,129,103,72,174,234,202,136,230,
};

const hUGESong_t song = {7, &order_cnt, order1, order2, order3,order4, duty_instruments, wave_instruments, noise_instruments, NULL, waves};
